<svg xmlns="http://www.w3.org/2000/svg" viewBox="0 0 320 120" role="img" aria-label="Hacienda La Calceta">
  <rect width="320" height="120" rx="16" fill="#ffffff" />
  <g transform="translate(18 26)">
    <path d="M36 12c-6 0-11 5-11 11s5 11 11 11 11-5 11-11-5-11-11-11z" fill="#dc2b28" />
    <path d="M14 18c0-7 7-12 14-12-3 5-3 13 1 18-7 0-15-2-15-6z" fill="#1b8e4b" />
    <path d="M22 40c-8 0-14-6-14-12 5 2 13 2 18-1 0 7-2 13-4 13z" fill="#1b8e4b" />
    <path d="M28 12c4-4 10-6 15-6-2 4-2 10 0 14-5 0-11-3-15-8z" fill="#1b8e4b" />
    <path d="M47 22c6 0 12 5 12 11s-6 11-12 11c2-5 2-13 0-22z" fill="#214497" />
  </g>
  <text x="92" y="64" fill="#1b8e4b" font-family="'Georgia', 'Times New Roman', serif" font-size="34" font-weight="700">Hacienda</text>
  <text x="92" y="92" fill="#1b8e4b" font-family="'Brush Script MT', cursive" font-size="38" font-weight="600">La Calceta</text>
  <text x="94" y="108" fill="#444" font-family="'Inter', 'Segoe UI', system-ui" font-size="14" font-weight="600">Armonía Vital</text>
</svg>
